# xmcd
#
# Track frame offsets: 
#        150
#        28290
#        45593
#        60761
#        82097
#        100172
#        112503
#        123431
#        135874
#        152809
#        163750
#        178273
#        192903
#        211484
#        228147
#
# Disc length: 3131 seconds
#
# Revision: 7
# Processed by: cddbd v1.5.2PL0 Copyright (c) Steve Scherf et al.
# Submitted via: ExactAudioCopyFreeDBPlugin 1.0
#
DISCID=bc0c390f
DTITLE=Johnny Cash and Willie Nelson - VH1 Storytellers
DYEAR=1998
DGENRE=Country
TTITLE0=(Ghost) Riders in the Sky
TTITLE1=Worried Man
TTITLE2=Family Bible
TTITLE3=Don't Take Your Guns To Town
TTITLE4=Funny How Time Slips Away
TTITLE5=Flesh and Blood
TTITLE6=Crazy
TTITLE7=Unchained
TTITLE8=Night Life
TTITLE9=Drive On
TTITLE10=Me and Paul
TTITLE11=I Still Miss Someone
TTITLE12=Always on My Mind
TTITLE13=Folsom Prison Blues
TTITLE14=On the Road Again
EXTD=CK 69416/American  Recording Company/1998\nProduced by Rick Rubin
EXTT0=
EXTT1=
EXTT2=
EXTT3=
EXTT4=
EXTT5=
EXTT6=
EXTT7=
EXTT8=
EXTT9=
EXTT10=
EXTT11=
EXTT12=
EXTT13=
EXTT14=
PLAYORDER=
